<mxfile host="www.draw.io" modified="2019-12-06T03:35:58.604Z" agent="Mozilla/5.0 (Windows NT 10.0; Win64; x64) AppleWebKit/537.36 (KHTML, like Gecko) Chrome/75.0.3770.80 Safari/537.36" etag="ALU1yxmoNWl1jsyQcnZQ" version="12.3.7" type="github" pages="1">
  <diagram id="7ggo3f5--qJA_tkaTP-2" name="第 1 页">
    <mxGraphModel dx="722" dy="451" grid="1" gridSize="10" guides="1" tooltips="1" connect="1" arrows="1" fold="1" page="1" pageScale="1" pageWidth="1920" pageHeight="1200" math="0" shadow="0">
      <root>
        <mxCell id="0"/>
        <mxCell id="1" parent="0"/>
        <mxCell id="_VSJxnETAhSezJj36ANZ-1" value="" style="strokeWidth=2;html=1;shape=mxgraph.flowchart.sequential_data;whiteSpace=wrap;" vertex="1" parent="1">
          <mxGeometry x="190" y="250" width="100" height="100" as="geometry"/>
        </mxCell>
        <mxCell id="_VSJxnETAhSezJj36ANZ-2" value="" style="strokeWidth=2;html=1;shape=mxgraph.flowchart.database;whiteSpace=wrap;" vertex="1" parent="1">
          <mxGeometry x="200" y="130" width="60" height="60" as="geometry"/>
        </mxCell>
      </root>
    </mxGraphModel>
  </diagram>
</mxfile>
